<?xml version="1.0" encoding="UTF-8"?>
<svg version="1.1" xmlns="http://www.w3.org/2000/svg" width="29" height="29">
<path d="M0 0 C4.0978357 2.11806428 6.3858792 4.82293512 8.5 8.875 C9.28572894 13.78580589 9.41087913 17.80342172 6.6953125 22.03125 C3.66822985 25.70591749 1.68104998 27.71851283 -3.26953125 28.23828125 C-9.05034894 28.40699943 -12.51856577 28.04422113 -17 24 C-20.38570467 20.16286804 -20.51291172 16.36598538 -20.3515625 11.4375 C-19.68186218 6.79424443 -17.30185478 4.18350434 -13.9375 1.125 C-9.27500358 -0.66063693 -4.91201179 -0.86434542 0 0 Z " fill="#65AA10" transform="translate(20,1)"/>
<path d="M0 0 C0.66 0 1.32 0 2 0 C2 1.65 2 3.3 2 5 C3.65 5 5.3 5 7 5 C7 5.66 7 6.32 7 7 C5.35 7 3.7 7 2 7 C2 8.65 2 10.3 2 12 C1.34 12 0.68 12 0 12 C0 10.35 0 8.7 0 7 C-1.65 7 -3.3 7 -5 7 C-5 6.34 -5 5.68 -5 5 C-3.35 5 -1.7 5 0 5 C0 3.35 0 1.7 0 0 Z " fill="#FDFEFC" transform="translate(13,9)"/>
</svg>
